<?xml version="1.0" encoding="utf-8"?>
<!-- Generator: Adobe Illustrator 26.5.0, SVG Export Plug-In . SVG Version: 6.00 Build 0)  -->
<svg version="1.1" id="Layer_1" xmlns="http://www.w3.org/2000/svg" xmlns:xlink="http://www.w3.org/1999/xlink" x="0px" y="0px"
	 viewBox="0 0 50 50" style="enable-background:new 0 0 50 50;" xml:space="preserve">
<style type="text/css">
	.st0{fill:#FFFFFF;}
</style>
<path class="st0" d="M0,25c0-4.6,1.2-8.8,3.3-12.6l10.7,18.7c2.1,3.8,6.2,6.4,10.9,6.4c1.4,0,2.6-0.2,4-0.6l-7.5,12.9
	C9.4,48.1,0,37.6,0,25z M35.7,31.4c1.2-1.9,1.8-4.2,1.8-6.4c0-3.7-1.6-7.1-4.2-9.4h14.9c1.2,2.9,1.8,6.1,1.8,9.4
	c0,13.8-11.2,24.9-25,25L35.7,31.4z M46.7,12.5H25c-6.1,0-11.1,4.3-12.3,10L5.3,9.6C9.9,3.8,17,0,25,0C34.3,0,42.3,5,46.7,12.5
	L46.7,12.5z M16.4,25c0-4.7,3.8-8.6,8.6-8.6s8.6,3.8,8.6,8.6s-3.8,8.6-8.6,8.6S16.4,29.7,16.4,25z"/>
</svg>
