<?xml version="1.0" encoding="utf-8"?>
<!-- Generator: Adobe Illustrator 26.5.0, SVG Export Plug-In . SVG Version: 6.00 Build 0)  -->
<svg version="1.1" id="Layer_1" xmlns="http://www.w3.org/2000/svg" xmlns:xlink="http://www.w3.org/1999/xlink" x="0px" y="0px"
	 viewBox="0 0 50 50" style="enable-background:new 0 0 50 50;" xml:space="preserve">
<style type="text/css">
	.st0{fill:#FFFFFF;}
</style>
<path class="st0" d="M12.5,12.3C12.6,12.3,12.6,12.3,12.5,12.3L12.5,12.3z M47.4,16.8c-1.1-2.5-3.2-5.3-4.9-6.1
	c1.4,2.7,2.2,5.4,2.5,7.3c0,0,0,0,0,0c-2.7-6.8-7.4-9.6-11.2-15.6C32.4,0.1,32.8,0,32.6,0l0,0c-4.6,2.6-7.5,7.8-8.2,12.2
	c-1.7,0.1-3.3,0.5-4.8,1.2c-0.1,0.1-0.2,0.2-0.3,0.3c-0.1,0.1-0.1,0.3-0.1,0.4c0,0.1,0.1,0.2,0.1,0.2c0.1,0.1,0.1,0.1,0.2,0.2
	c0.1,0,0.2,0.1,0.2,0.1c0.1,0,0.2,0,0.3,0l0.1,0c1.5-0.7,3.2-1.1,4.9-1.1c6.2-0.1,9.6,4.4,10.7,6.2c-1.3-0.9-3.6-1.8-5.8-1.4
	c8.7,4.4,6.4,19.3-5.7,18.8c-5.9-0.3-9.6-5.1-10-9c0,0,1.1-4.2,8-4.2c0.7,0,2.9-2.1,2.9-2.7c0-0.2-4.2-1.9-5.9-3.5
	c-0.9-0.9-1.3-1.3-1.7-1.6c-0.2-0.2-0.4-0.3-0.6-0.5c-0.6-1.9-0.6-4-0.1-5.9c-2.5,1.1-4.4,2.9-5.8,4.5h0c-1-1.2-0.9-5.2-0.8-6.1
	c0-0.1-0.7,0.4-0.8,0.4c-0.9,0.6-1.6,1.3-2.4,2c-1.6,1.6-4.4,5-5.5,10.1c-0.5,2-0.7,4.4-0.7,5.2C0.8,39.2,11.6,50,25,50
	c12,0,22.1-8.7,23.9-20.1C50.1,22.3,47.4,16.9,47.4,16.8z"/>
</svg>
