<?xml version="1.0" encoding="UTF-8"?><svg id="Layer_1" xmlns="http://www.w3.org/2000/svg" viewBox="0 0 60 60"><defs><style>.cls-1{fill:#fff;fill-rule:evenodd;}</style></defs><g id="Snowflake-Extension"><path id="Fill-4" class="cls-1" d="M51.72,29.9c2.06-2.04,5.46-5.41,7.45-7.4,.38-.38,.38-.99,0-1.37-.38-.38-.99-.38-1.37,0-2.57,2.57-7.5,7.45-8.84,8.77h-15.77l10.78-10.78c.53,0,1.05,.01,1.58,.01,1.3,0,2.59-.02,3.85-.03,2.42-.03,4.93-.06,7.42,.02,.54,.01,.98-.4,1-.93,.02-.53-.4-.98-.94-1-2.54-.08-5.07-.05-7.51-.02-1.14,.01-2.31,.02-3.48,.03l6.16-6.16c.38-.38,.38-.99,0-1.37-.38-.38-.99-.38-1.37,0l-5.84,5.84c.01-2.92,.04-7.54,.04-10.28,0-.53-.43-.97-.97-.97-.53,0-.97,.43-.97,.97,0,3.5-.03,10.07-.05,12.22l-11.1,11.1V13.09c1.16-1.17,6.23-6.3,8.86-8.93,.38-.38,.38-.99,0-1.37-.38-.38-.99-.38-1.37,0-2.02,2.02-5.47,5.5-7.49,7.55V1.84c0-.53-.43-.97-.97-.97s-.97,.43-.97,.97V10.29c-.74-.75-1.47-1.49-2.19-2.23-1.71-1.75-3.47-3.56-5.33-5.3-.39-.37-1-.35-1.37,.05-.37,.39-.34,1,.05,1.37,1.83,1.71,3.57,3.5,5.27,5.24,1.16,1.19,2.36,2.41,3.57,3.61v15.51l-10.52-10.52c0-.94-.05-8.87-.05-12.83,0-.53-.43-.97-.97-.97-.53,0-.97,.43-.97,.97,0,2.94,.02,8.05,.04,10.89l-6.41-6.41c-.38-.38-.99-.38-1.37,0-.38,.38-.38,.99,0,1.37l6.13,6.13c-.97,0-1.93-.01-2.87-.03-2.44-.03-4.97-.06-7.51,.02-.53,.02-.95,.46-.94,1,.02,.53,.46,.95,1,.93,2.5-.08,5-.05,7.42-.02,1.26,.02,2.56,.03,3.85,.03,.33,0,.65,0,.98,0l10.82,10.82H13.29c-1.33-1.32-6.27-6.2-8.84-8.77-.38-.38-.99-.38-1.37,0-.38,.38-.38,.99,0,1.37,1.99,1.99,5.39,5.36,7.45,7.4H1.84c-.53,0-.97,.43-.97,.97s.43,.97,.97,.97H10.68c-.78,.77-1.56,1.54-2.32,2.28-1.75,1.71-3.56,3.47-5.3,5.33-.37,.39-.35,1,.05,1.37,.19,.17,.42,.26,.66,.26,.26,0,.52-.1,.71-.31,1.71-1.83,3.5-3.57,5.23-5.26,1.22-1.19,2.48-2.42,3.7-3.67h15.12l-11.31,11.31c-1.66-.01-3.33,0-4.95,.03-2.42,.03-4.93,.06-7.42-.02-.53-.01-.98,.4-1,.94-.02,.53,.4,.98,.94,1,2.54,.08,5.07,.05,7.51,.02,.98-.01,1.98-.02,2.99-.03l-5.63,5.63c-.38,.38-.38,.99,0,1.37,.19,.19,.44,.28,.68,.28s.5-.09,.68-.28l5.8-5.8c-.01,2.86-.04,7.87-.04,10.77,0,.53,.43,.97,.97,.97s.97-.43,.97-.97c0-3.83,.04-11.36,.05-12.72l11.13-11.13v15.51c-1.22,1.19-2.42,2.42-3.58,3.61-1.69,1.73-3.44,3.53-5.26,5.23-.39,.37-.41,.98-.05,1.37,.19,.2,.45,.31,.71,.31,.24,0,.47-.09,.66-.26,1.86-1.74,3.62-3.55,5.33-5.3,.72-.74,1.45-1.48,2.19-2.23v8.45c0,.53,.43,.97,.97,.97s.97-.43,.97-.97v-8.5c2.03,2.05,5.47,5.53,7.49,7.55,.38,.38,.99,.38,1.37,0,.38-.38,.38-.99,0-1.37-2.63-2.63-7.7-7.76-8.86-8.93v-15.45l10.9,10.9c0,1.5,.05,8.87,.05,12.65,0,.53,.43,.97,.97,.97s.97-.43,.97-.97c0-2.88-.02-7.84-.04-10.71l6.03,6.03c.19,.19,.44,.28,.68,.28s.5-.09,.68-.28c.38-.38,.38-.99,0-1.37l-5.92-5.93c1.02,0,2.05,.01,3.05,.03,2.44,.03,4.97,.06,7.51-.02,.53-.02,.95-.46,.94-1-.02-.53-.46-.95-1-.93-2.5,.08-5,.05-7.42,.02-1.64-.02-3.33-.04-5.01-.03l-11.02-11.02h15.65c1.22,1.25,2.48,2.48,3.7,3.67,1.73,1.69,3.53,3.44,5.23,5.26,.19,.2,.45,.31,.71,.31,.24,0,.47-.09,.66-.26,.39-.37,.41-.98,.05-1.37-1.74-1.86-3.55-3.62-5.3-5.33-.77-.75-1.55-1.51-2.32-2.28h8.32c.53,0,.97-.43,.97-.97s-.43-.97-.97-.97h-8.18Z"/></g></svg>